# xmcd CD database file
#
# Track frame offsets:
#	183
#	12958
#	25833
#	39070
#	51695
#	69058
#	79370
#	93083
#	104770
#	117358
#	127583
#	140445
#	151645
#	166308
#	180045
#	192958
#	206695
#	218845
#	228820
#	241308
#
# Disc length: 3363 seconds
#
# Revision: 0
# Processed by: cddbd v1.4PL0 Copyright (c) Steve Scherf et al.
# Submitted via: CDex 1.40Release
#
DISCID=f60d2114
DTITLE=Various Blues - The Willie Dixon songbook
DYEAR=1900
DGENRE=Blues
TTITLE0=Howlin´ Wolf-Back door man
TTITLE1=Muddy Waters-I just want to make love to you
TTITLE2=Bo Diddley-You can´t judge a book by it´s cover
TTITLE3=Etta James and Harvey Fuqua-Spoonful
TTITLE4=Howlin´ Wolf-Little red rooster
TTITLE5=Sonny Boy Williamson-That´s all I want
TTITLE6=Koko Taylor-Wang dang doodle
TTITLE7=Howlin´ Wolf-Howlin´ for my darling
TTITLE8=Little Milton-Country style
TTITLE9=Mitty Collier-My baby
TTITLE10=Muddy Waters-I´m your hoochie coochie man
TTITLE11=Howlin´ Wolf-You´ll be mine
TTITLE12=Koko Taylor-29 ways
TTITLE13=Muddy waters-I´m ready
TTITLE14=Howlin´ Wolf-Evil
TTITLE15=Etta James-I just want to make love to you
TTITLE16=Little Walter-My baby
TTITLE17=Koko Taylor-I don´t care who knows
TTITLE18=Howlin´ Wolf-Spoonful
TTITLE19=Koko Taylor-Whatever I am you made me
EXTD=ID3G: 0
EXTT0=
EXTT1=
EXTT2=
EXTT3=
EXTT4=
EXTT5=
EXTT6=
EXTT7=
EXTT8=
EXTT9=
EXTT10=
EXTT11=
EXTT12=
EXTT13=
EXTT14=
EXTT15=
EXTT16=
EXTT17=
EXTT18=
EXTT19=
PLAYORDER=
